<?xml version="1.0" encoding="UTF-8" standalone="no"?>
<!-- Created with Inkscape (http://www.inkscape.org/) -->

<svg
   width="48"
   height="48"
   viewBox="0 0 48 48"
   version="1.1"
   id="svg1"
   xmlns="http://www.w3.org/2000/svg"
   xmlns:svg="http://www.w3.org/2000/svg"
   xmlns:rdf="http://www.w3.org/1999/02/22-rdf-syntax-ns#"
   xmlns:cc="http://creativecommons.org/ns#"
   xmlns:dc="http://purl.org/dc/elements/1.1/">
  <title
     id="title1">testbud</title>
  <defs
     id="defs1" />
  <g
     id="layer1">
    <circle
       style="fill:#ffffff;fill-opacity:1;stroke:none;stroke-width:0.634514;stroke-dasharray:none;stroke-opacity:1"
       id="path196"
       cx="24"
       cy="24"
       r="24" />
    <path
       d="M 23.382812,0.015625 C 10.414292,0.34418491 0,10.952299 0,24 0,37.047701 10.414292,47.655815 23.382812,47.984375 23.587342,47.994743 23.792894,48 24,48 30.627404,48 36,42.627404 36,36 36,29.372596 30.627404,24 24,24 17.372596,24 12,18.627404 12,12 12,5.5797026 17.042387,0.33702189 23.382812,0.015625 Z M 24,32 c 2.209135,0 4,1.790865 4,4 0,2.209135 -1.790865,4 -4,4 -2.209135,0 -4,-1.790865 -4,-4 0,-2.209135 1.790865,-4 4,-4 z"
       style="stroke-width:1.01893"
       id="path194" />
    <path
       d="m 24,8 a 4,4 0 0 0 -4,4 4,4 0 0 0 4,4 4,4 0 0 0 4,-4 4,4 0 0 0 -4,-4 z"
       style="stroke-width:0.169822"
       id="path195" />
  </g>
  <metadata
     id="metadata1">
    <rdf:RDF>
      <cc:Work
         rdf:about="">
        <dc:title>testbud</dc:title>
      </cc:Work>
    </rdf:RDF>
  </metadata>
</svg>
